<svg xmlns="http://www.w3.org/2000/svg" xmlns:svg="http://www.w3.org/2000/svg" xmlns:xlink="http://www.w3.org/1999/xlink" id="svg2816" width="32" height="32" version="1.1"><defs id="defs2818"><linearGradient id="linearGradient3737"><stop id="stop3739" offset="0" stop-color="#616161" stop-opacity="1"/><stop id="stop3747" offset=".491" stop-color="#363636" stop-opacity="1"/><stop id="stop3745" offset=".491" stop-color="#000" stop-opacity="1"/><stop id="stop3741" offset="1" stop-color="#595959" stop-opacity="1"/></linearGradient><linearGradient id="linearGradient3703"><stop id="stop3705" offset="0" stop-color="#000" stop-opacity="1"/><stop id="stop3713" offset=".5" stop-color="#000" stop-opacity=".749"/><stop id="stop3711" offset=".5" stop-color="#202020" stop-opacity="1"/><stop id="stop3707" offset="1" stop-color="#5b5b5b" stop-opacity="1"/></linearGradient><linearGradient id="linearGradient3665"><stop id="stop3667" offset="0" stop-color="#585858" stop-opacity="1"/><stop id="stop3677" offset=".507" stop-color="#1a1a1a" stop-opacity="1"/><stop id="stop3673" offset=".507" stop-color="#000" stop-opacity="1"/><stop id="stop3669" offset="1" stop-color="#585858" stop-opacity="1"/></linearGradient><linearGradient id="linearGradient3632"><stop id="stop3640" offset="0" stop-color="#474747" stop-opacity="1"/><stop id="stop3675" offset=".467" stop-color="#2c2c2c" stop-opacity="1"/><stop id="stop3679" offset=".474" stop-color="#111" stop-opacity="1"/><stop id="stop3636" offset="1" stop-color="#252525" stop-opacity="1"/></linearGradient><linearGradient id="linearGradient3624"><stop id="stop3626" offset="0" stop-color="#00335f" stop-opacity="1"/><stop id="stop3628" offset="1" stop-color="#00335f" stop-opacity="0"/></linearGradient><linearGradient id="linearGradient3638" x1="11.066" x2="20.506" y1="-1.846" y2="5.466" gradientUnits="userSpaceOnUse" xlink:href="#linearGradient3632"/><linearGradient id="linearGradient3671" x1="1" x2="7.975" y1="13.166" y2="3.252" gradientUnits="userSpaceOnUse" xlink:href="#linearGradient3665"/><linearGradient id="linearGradient3709" x1="21.217" x2="27.874" y1="26.374" y2="17.136" gradientUnits="userSpaceOnUse" xlink:href="#linearGradient3703"/><linearGradient id="linearGradient3743" x1="3.117" x2="14.808" y1="20.49" y2="30" gradientUnits="userSpaceOnUse" xlink:href="#linearGradient3737"/><filter id="filter3782" width="1.718" height="1.722" x="-.359" y="-.361"><feGaussianBlur id="feGaussianBlur3784" stdDeviation=".803"/></filter></defs><metadata id="metadata2821"/><g id="layer1" display="none"><path id="path2826" fill="#000" fill-opacity="1" stroke="none" d="M 21.343475,19.765456 9.7990583,16.154025 -0.26791065,22.980373 3.3435202,11.435956 -3.4828274,1.3689874 8.0615889,4.9804183 18.128558,-1.8459293 14.517127,9.6984869 21.343475,19.765456 z" transform="matrix(1.2083958,0,0,1.1278361,5.2086341,4.0819062)"/></g><g id="layer2" display="inline"><path id="path2826-3" fill="url(#linearGradient3638)" fill-opacity="1" stroke="none" d="M 8.0615889,4.9804183 18.128558,-1.8459293 14.517127,9.6984869 8.0755633,11.510667 8.0615889,4.9804183 z" transform="matrix(1.2083958,0,0,1.1278361,5.2086341,4.0819057)"/><path id="path2826-6" fill="url(#linearGradient3671)" fill-opacity="1" stroke="none" d="M 9.2489299,16.97979 1.0000001,5.6258991 14.950224,9.6990013 15.162203,15.517965 9.2489299,16.97979 z"/><path id="path2826-8" fill="url(#linearGradient3709)" fill-opacity="1" stroke="none" d="M 31,26.374101 17.049775,22.300998 16.900943,16.292594 22.751069,15.020209 31,26.374101 z" display="inline"/><path id="path2826-9" fill="url(#linearGradient3743)" fill-opacity="1" stroke="none" d="M 17.049775,22.300998 4.884892,30 9.2489299,16.97979 l 7.8155311,-2.170136 -0.01469,7.491344 z" display="inline"/></g><g id="layer3" display="inline"><path id="path3750" fill="#000" fill-opacity="1" stroke="none" d="m 18.723064,15.976467 a 2.6837444,2.6679575 0 1 1 -5.367488,0 2.6837444,2.6679575 0 1 1 5.367488,0 z" transform="matrix(0.74522744,0,0,0.74963712,3.8130891,3.8153884)"/><path id="path3750-7" fill="#fff" fill-opacity="1" stroke="none" d="m 18.723064,15.976467 a 2.6837444,2.6679575 0 1 1 -5.367488,0 2.6837444,2.6679575 0 1 1 5.367488,0 z" display="inline" filter="url(#filter3782)" transform="matrix(0.55950211,0,0,0.56196868,6.9658159,6.8955301)"/></g></svg>